<svg xmlns="http://www.w3.org/2000/svg" width="100" height="80" viewBox="0 0 100 80">
    <g fill="#007672" fill-rule="evenodd">
        <path d="M100 23.718c-4.717 1.035-9.34 1.976-14.15 3.011.942-3.858 1.792-7.435 2.64-11.011-.094 0-.094 0-.188-.094-2.547 7.529-5.094 15.058-7.736 22.682-5.094-5.177-10.094-10.165-15.189-15.247 1.604-.565 3.02-1.13 4.434-1.694 6.038-2.165 11.981-4.424 18.02-6.589.66-.282 1.131-.188 1.697.283 3.208 2.635 6.415 5.27 9.623 8 .283.094.472.376.849.659zM38.585 40.094c4.434 3.765 8.68 7.435 13.019 11.106l.094-.094c-.189-.188-.377-.47-.566-.659-3.585-3.67-7.17-7.435-10.755-11.106-.471-.47-.566-.941-.377-1.506 2.075-9.223 4.15-18.447 6.132-27.67 0-.094 0-.189-.189-.283-1.886 6.494-3.679 12.989-5.566 19.577C26.887 19.67 13.491 9.882 0 .189 0 .093.094 0 .094 0c2.264.47 4.434.847 6.698 1.318 8.208 1.6 16.51 3.2 24.717 4.8 4.717.94 9.434 1.788 14.246 2.823.471.094 1.037.47 1.415.847C58.019 19.2 68.774 28.518 79.623 37.93c.188.189.377.377.66.565-.377.188-.66.377-.943.47-8.208 4.236-16.321 8.377-24.529 12.612-.754.377-1.51.848-2.17 1.412-11.698 8.847-23.207 17.694-34.716 26.541-.095.095-.283.189-.567.189C24.434 66.54 31.51 53.365 38.585 40.094z"/>
    </g>
</svg>
